<svg width="209" height="40" xmlns="http://www.w3.org/2000/svg"><g fill="none"><path d="M20.048 0C31.12 0 40.096 8.954 40.096 20S31.12 40 20.048 40C8.976 40 0 31.046 0 20S8.976 0 20.048 0zm0 4.043C11.214 4.043 4.053 11.187 4.053 20c0 1.584.231 3.114.662 4.558a14.341 14.341 0 01-.372-3.258c0-7.936 6.448-14.369 14.402-14.369 7.955 0 14.403 6.433 14.403 14.369 0 7.935-6.448 14.368-14.403 14.368a14.48 14.48 0 01-3.264-.37 16.08 16.08 0 004.567.659c8.834 0 15.995-7.144 15.995-15.957S28.882 4.043 20.048 4.043zm-1.303 6.932c-5.716 0-10.35 4.622-10.35 10.325 0 5.702 4.634 10.325 10.35 10.325 5.716 0 10.35-4.623 10.35-10.325a10.28 10.28 0 00-.477-3.106A8.74 8.74 0 0128.805 20c0 4.825-3.92 8.736-8.757 8.736S11.291 24.825 11.291 20c0-4.825 3.92-8.736 8.757-8.736.621 0 1.227.064 1.812.187a10.36 10.36 0 00-3.115-.476zm1.303 4.332A4.699 4.699 0 0015.344 20a4.699 4.699 0 004.704 4.693A4.699 4.699 0 0024.752 20a4.699 4.699 0 00-4.704-4.693z" fill="#EAC649"/><path d="M56.134 28.014c.538 0 1.152-.085 1.84-.254.688-.17 1.421-.433 2.2-.791l-1.018-2.746a11.13 11.13 0 01-1.676.552c-.478.11-.927.164-1.346.164-1.077 0-1.945-.447-2.603-1.343-.658-.895-.988-2.13-.988-3.701 0-1.552.33-2.776.988-3.672.658-.895 1.526-1.343 2.603-1.343.339 0 .738.03 1.197.09.458.06.927.149 1.406.268l1.017-2.776a10.606 10.606 0 00-1.855-.492 10.501 10.501 0 00-1.765-.164 9.05 9.05 0 00-3.007.507c-.968.338-1.82.84-2.558 1.507-.738.667-1.332 1.508-1.78 2.523-.45 1.015-.674 2.199-.674 3.552 0 1.433.225 2.661.673 3.686.45 1.025 1.043 1.866 1.78 2.522a7 7 0 002.559 1.448 9.84 9.84 0 003.007.463zm12.333 0a8.15 8.15 0 002.917-.552 7.82 7.82 0 002.573-1.597c.748-.697 1.357-1.548 1.826-2.553.468-1.004.703-2.144.703-3.417 0-1.194-.195-2.284-.584-3.269a7.504 7.504 0 00-1.645-2.552 7.471 7.471 0 00-2.529-1.671c-.977-.398-2.064-.597-3.261-.597-.858 0-1.76.159-2.708.477a8.035 8.035 0 00-2.603 1.463c-.788.656-1.436 1.497-1.945 2.522-.509 1.025-.763 2.234-.763 3.627 0 1.293.22 2.447.658 3.462.44 1.015 1.028 1.866 1.766 2.552a7.578 7.578 0 002.558 1.567c.967.359 1.98.538 3.037.538zm0-3.045a3.004 3.004 0 01-1.481-.373 3.342 3.342 0 01-1.137-1.045 5.223 5.223 0 01-.718-1.597 7.766 7.766 0 01-.255-2.06c0-.696.08-1.347.24-1.954a5.41 5.41 0 01.688-1.597c.3-.458.673-.821 1.122-1.09a2.946 2.946 0 011.54-.403c.58 0 1.093.135 1.542.403.449.269.823.632 1.122 1.09.3.457.523.99.673 1.597.15.607.224 1.258.224 1.955a8.32 8.32 0 01-.224 1.97 5.13 5.13 0 01-.673 1.612c-.3.457-.673.82-1.122 1.09-.449.268-.963.402-1.541.402zm16.312 3.045c.579 0 1.182-.13 1.81-.388.629-.259 1.332-.737 2.11-1.433l.509-.657.15.687c.1.278.234.547.403.806.17.258.384.457.644.597h3.201a17.67 17.67 0 01-.344-1.985 16.082 16.082 0 01-.105-1.776V5h-4.159v17.85c-1.217 1.393-2.373 2.09-3.47 2.09-.5 0-.948-.14-1.347-.419a3.418 3.418 0 01-1.002-1.119 5.815 5.815 0 01-.614-1.627 8.907 8.907 0 01-.21-1.97c0-.696.06-1.343.18-1.94s.31-1.11.569-1.537c.26-.428.598-.771 1.017-1.03.42-.259.938-.408 1.556-.448.499-.04.928-.273 1.287-.701.359-.428.678-.99.957-1.687-.778-.219-1.411-.363-1.9-.433a10.7 10.7 0 00-1.51-.104 5.19 5.19 0 00-2.484.642c-.798.428-1.501 1-2.11 1.716a8.4 8.4 0 00-1.45 2.507 8.497 8.497 0 00-.54 3.015c0 1.174.155 2.264.464 3.269.31 1.005.753 1.875 1.332 2.611a5.95 5.95 0 002.154 1.717c.858.408 1.825.612 2.902.612zm19.245 0a13.1 13.1 0 002.828-.314c.947-.209 1.96-.572 3.037-1.09l-1.048-2.775c-.877.398-1.65.681-2.318.85a8.32 8.32 0 01-2.05.254c-1.257 0-2.274-.472-3.052-1.418-.778-.945-1.167-2.283-1.167-4.014 0-.856.105-1.587.314-2.194.21-.607.484-1.105.823-1.493.34-.388.713-.671 1.122-.85a3.07 3.07 0 011.242-.269c.459 0 .863.095 1.212.284.349.189.638.442.867.76.23.32.394.687.494 1.105.1.418.12.856.06 1.313h-2.663c-.519 0-.982.234-1.391.702-.41.468-.723 1.05-.943 1.746h8.378c.439-1.273.593-2.452.464-3.537-.13-1.085-.474-2.015-1.033-2.79-.558-.777-1.296-1.384-2.214-1.822-.917-.437-1.925-.656-3.022-.656a8.646 8.646 0 00-3.052.537c-.957.358-1.79.87-2.498 1.537-.708.667-1.267 1.488-1.676 2.463-.408.975-.613 2.08-.613 3.313 0 1.015.155 2.02.464 3.015.31.995.788 1.885 1.436 2.671.648.786 1.466 1.428 2.454 1.925.987.498 2.169.747 3.545.747zm15.954 0a8.15 8.15 0 002.917-.552 7.82 7.82 0 002.573-1.597c.748-.697 1.357-1.548 1.825-2.553.469-1.004.703-2.144.703-3.417 0-1.194-.194-2.284-.583-3.269a7.504 7.504 0 00-1.646-2.552 7.471 7.471 0 00-2.528-1.671c-.977-.398-2.065-.597-3.261-.597-.858 0-1.76.159-2.708.477a8.035 8.035 0 00-2.603 1.463c-.788.656-1.436 1.497-1.945 2.522-.509 1.025-.763 2.234-.763 3.627 0 1.293.22 2.447.658 3.462.439 1.015 1.027 1.866 1.765 2.552a7.578 7.578 0 002.559 1.567c.967.359 1.98.538 3.037.538zm0-3.045a3.004 3.004 0 01-1.481-.373 3.342 3.342 0 01-1.137-1.045 5.223 5.223 0 01-.719-1.597 7.766 7.766 0 01-.254-2.06c0-.696.08-1.347.24-1.954a5.41 5.41 0 01.688-1.597 3.442 3.442 0 011.122-1.09 2.946 2.946 0 011.54-.403c.58 0 1.093.135 1.542.403.448.269.822.632 1.122 1.09.299.457.523.99.673 1.597.15.607.224 1.258.224 1.955 0 .696-.075 1.353-.224 1.97a5.13 5.13 0 01-.673 1.612c-.3.457-.674.82-1.122 1.09-.45.268-.963.402-1.541.402zm15.564 2.955a6.27 6.27 0 002.02-.328 5.435 5.435 0 001.72-.94 4.608 4.608 0 001.197-1.493c.3-.587.449-1.239.449-1.955 0-.776-.18-1.428-.539-1.955a5.285 5.285 0 00-1.346-1.358 10.564 10.564 0 00-1.736-.985 78.363 78.363 0 01-1.735-.806 6.514 6.514 0 01-1.346-.836c-.36-.298-.539-.657-.539-1.075 0-.417.165-.74.494-.97.329-.228.783-.343 1.361-.343.499 0 .988.035 1.466.105.479.07 1.107.204 1.885.403l.958-2.687c-.958-.318-1.79-.527-2.499-.627-.708-.1-1.4-.149-2.08-.149-1.016 0-1.88.144-2.587.433-.708.288-1.282.647-1.72 1.074a3.775 3.775 0 00-.943 1.433 4.457 4.457 0 00-.284 1.508c0 .796.179 1.457.538 1.985a5.08 5.08 0 001.347 1.343 9.698 9.698 0 001.735.94c.618.259 1.197.517 1.735.776.539.259.988.537 1.347.836.359.298.538.666.538 1.104 0 .378-.17.722-.508 1.03-.34.308-.878.463-1.616.463-.638 0-1.317-.07-2.035-.21-.718-.139-1.546-.387-2.483-.745l-.958 2.776c1.337.557 2.504.905 3.501 1.044.998.14 1.885.21 2.663.21zm14.128.09c.539 0 1.152-.085 1.84-.254a12.41 12.41 0 002.2-.791l-1.018-2.746c-.638.259-1.196.443-1.675.552a6.03 6.03 0 01-1.347.164c-1.077 0-1.944-.447-2.603-1.343-.658-.895-.987-2.13-.987-3.701 0-1.552.33-2.776.987-3.672.659-.895 1.526-1.343 2.603-1.343.34 0 .738.03 1.197.09.46.06.928.149 1.407.268l1.017-2.776a10.606 10.606 0 00-1.855-.492 10.501 10.501 0 00-1.766-.164 9.05 9.05 0 00-3.007.507c-.967.338-1.82.84-2.558 1.507-.738.667-1.331 1.508-1.78 2.523-.449 1.015-.673 2.199-.673 3.552 0 1.433.224 2.661.673 3.686.449 1.025 1.042 1.866 1.78 2.522a7 7 0 002.558 1.448 9.84 9.84 0 003.007.463zm12.333 0c.978 0 1.95-.184 2.918-.552a7.82 7.82 0 002.573-1.597c.748-.697 1.356-1.548 1.825-2.553.469-1.004.703-2.144.703-3.417 0-1.194-.194-2.284-.583-3.269a7.504 7.504 0 00-1.646-2.552 7.471 7.471 0 00-2.528-1.671c-.978-.398-2.065-.597-3.262-.597-.857 0-1.76.159-2.707.477a8.035 8.035 0 00-2.603 1.463c-.788.656-1.437 1.497-1.945 2.522-.509 1.025-.763 2.234-.763 3.627 0 1.293.22 2.447.658 3.462.439 1.015 1.027 1.866 1.765 2.552a7.578 7.578 0 002.559 1.567c.967.359 1.98.538 3.036.538zm0-3.045a3.004 3.004 0 01-1.48-.373 3.342 3.342 0 01-1.138-1.045 5.223 5.223 0 01-.718-1.597 7.766 7.766 0 01-.254-2.06c0-.696.08-1.347.24-1.954a5.41 5.41 0 01.688-1.597 3.442 3.442 0 011.122-1.09c.448-.268.962-.403 1.54-.403.579 0 1.093.135 1.541.403.45.269.823.632 1.122 1.09.3.457.524.99.674 1.597.15.607.224 1.258.224 1.955 0 .696-.075 1.353-.224 1.97a5.13 5.13 0 01-.674 1.612c-.299.457-.673.82-1.122 1.09-.448.268-.962.402-1.54.402zm14.847 9.85V16.97c1.197-1.392 2.354-2.089 3.47-2.089.5 0 .943.14 1.332.418.39.279.718.652.988 1.12a6.17 6.17 0 01.628 1.626 8.32 8.32 0 01.224 1.97c0 1.413-.249 2.572-.748 3.478-.498.905-1.366 1.398-2.603 1.477-.499.04-.922.274-1.271.702-.35.427-.664.99-.943 1.686.778.219 1.411.363 1.9.433.489.07.992.104 1.511.104a5.19 5.19 0 002.483-.641c.798-.428 1.501-1 2.11-1.717a8.4 8.4 0 001.451-2.507c.36-.955.539-1.96.539-3.015 0-1.174-.155-2.263-.464-3.268-.31-1.005-.758-1.87-1.347-2.597a6.353 6.353 0 00-2.154-1.717c-.848-.417-1.81-.626-2.887-.626-.599 0-1.212.134-1.84.403-.629.268-1.342.77-2.14 1.507l-.449.597-.09-.597a5.1 5.1 0 00-.448-.866 2.071 2.071 0 00-.658-.656h-3.202c.16.696.274 1.358.344 1.985.07.626.105 1.218.105 1.776V34.82h4.159zm15.714-24.655c.698 0 1.282-.234 1.75-.702.47-.467.703-1.05.703-1.746s-.234-1.288-.703-1.776c-.468-.487-1.052-.731-1.75-.731s-1.282.244-1.75.731c-.47.488-.704 1.08-.704 1.776 0 .697.235 1.279.704 1.746.468.468 1.052.702 1.75.702zm2.094 17.462V12.194h-4.188v15.432h4.188zm10.239.388c.539 0 1.152-.085 1.84-.254.688-.17 1.421-.433 2.2-.791l-1.018-2.746a11.13 11.13 0 01-1.676.552c-.478.11-.927.164-1.346.164-1.077 0-1.945-.447-2.603-1.343-.658-.895-.987-2.13-.987-3.701 0-1.552.329-2.776.987-3.672.658-.895 1.526-1.343 2.603-1.343.34 0 .738.03 1.197.09.459.06.927.149 1.406.268l1.017-2.776a10.606 10.606 0 00-1.855-.492 10.501 10.501 0 00-1.765-.164 9.05 9.05 0 00-3.007.507c-.967.338-1.82.84-2.558 1.507-.738.667-1.332 1.508-1.78 2.523-.45 1.015-.674 2.199-.674 3.552 0 1.433.225 2.661.673 3.686.45 1.025 1.043 1.866 1.78 2.522a7 7 0 002.559 1.448 9.84 9.84 0 003.007.463z" fill="#111"/></g></svg>