<?xml version="1.0" encoding="UTF-8"?>
<svg width="99px" height="32px" viewBox="0 0 99 32" version="1.1" xmlns="http://www.w3.org/2000/svg" xmlns:xlink="http://www.w3.org/1999/xlink">
    <title>element/logo/1</title>
    <g id="Wondo-web" stroke="none" stroke-width="1" fill="none" fill-rule="evenodd">
        <g id="Wondo/Wondo-web-03" transform="translate(-672.000000, -28.000000)" fill="#000000" fill-rule="nonzero">
            <g id="Group" transform="translate(669.000000, 24.000000)">
                <g id="wondo-test-logo" transform="translate(3.000000, 4.000000)">
                    <polygon id="Path" points="0 7.46511554 4.19786454 7.46511554 7.46619028 18.0181036 11.3042665 7.46511554 14.9924258 7.46511554 18.7705371 18.0780583 22.1588794 7.46511044 26.3567439 7.46511044 20.8694706 23.4587436 16.9714308 23.4587436 13.1033727 13.1013852 9.20533291 23.4587487 5.24732813 23.4587487"></polygon>
                    <path d="M26.3567439,15.7554002 C26.3567439,11.0784956 30.0449033,7.33097052 34.9024676,7.33097052 C39.7300437,7.33097052 43.4781731,11.0784841 43.4781731,15.7553849 C43.4781731,20.4022247 39.7900137,24.1797265 34.9024676,24.1797265 C30.0449084,24.1797265 26.3567439,20.40224 26.3567439,15.7554002 Z M39.3702566,15.7254145 C39.3702566,13.207054 37.3912542,11.1983987 34.9324558,11.1983987 C32.4437559,11.1983987 30.4946473,13.2070604 30.4946473,15.7254196 C30.4946473,18.2436934 32.4437559,20.2523474 34.9324558,20.2523474 C37.3912542,20.2523474 39.3702566,18.243687 39.3702566,15.7254145 L39.3702566,15.7254145 Z" id="Shape"></path>
                    <path d="M45.306124,7.66071458 L49.4927949,7.66071458 L49.4927949,9.43647745 C50.5451181,8.00734215 52.2035073,7.13533195 54.1816529,7.13533195 C58.0197291,7.13533195 60.4484641,9.65359936 60.4484641,13.880844 L60.4484641,23.4587104 L56.2206202,23.4587104 L56.2206202,14.5103681 C56.2206202,12.2019366 55.1111904,10.7629374 52.9223127,10.7629386 C50.9732921,10.7629386 49.4740054,12.2019417 49.4740054,14.7203009 L49.4740054,23.4587104 L45.306124,23.4587104 L45.306124,7.66071458 Z" id="Path"></path>
                    <path d="M62.276415,15.3641167 C62.276415,10.2074862 65.9945613,6.93968956 70.1324596,6.93968701 C72.2614604,6.93968701 74.0304994,7.83909227 75.1400134,9.33804749 L75.1400134,0 L79.2179468,0 L79.2179468,23.45869 L75.1400134,23.45869 L75.1400134,21.2401938 C74.0005074,22.8290818 72.1714218,23.7884469 70.0724908,23.7884469 C66.084508,23.7884469 62.276415,20.5206591 62.276415,15.3641167 Z M75.3798744,15.3341297 C75.3798744,12.8157692 73.4308551,10.7771385 70.8821023,10.7771385 C68.3886027,10.8097402 66.3843424,12.8403768 66.3843424,15.3340896 C66.3843424,17.8278023 68.3886027,19.8584389 70.8821023,19.8910406 C73.4308551,19.8910406 75.3798744,17.8524022 75.3798744,15.3341297 Z" id="Shape"></path>
                    <path d="M81.0459015,15.3641039 C81.0459015,10.6871994 84.7340609,6.93967426 89.5916252,6.93967426 C94.4192013,6.93967426 98.1673307,10.6871866 98.1673307,15.3640886 C98.1673307,20.0109284 94.4791713,23.7884316 89.5916252,23.7884316 C84.734066,23.7884316 81.0459015,20.0109437 81.0459015,15.3641039 Z M94.0594155,15.334117 C94.0594155,12.8157565 92.0804131,10.8071025 89.621607,10.8071025 C87.1329071,10.8071025 85.1837998,12.8157629 85.1837998,15.3341233 C85.1837998,17.8523959 87.1329071,19.8610499 89.621607,19.8610499 C92.0804131,19.8610499 94.0594155,17.8523895 94.0594155,15.3341195 L94.0594155,15.334117 Z" id="Shape"></path>
                    <circle id="Oval" transform="translate(34.903550, 29.304929) rotate(-81.994390) translate(-34.903550, -29.304929) " cx="34.9035496" cy="29.3049289" r="2.31259793"></circle>
                </g>
            </g>
        </g>
    </g>
</svg>